<?xml version="1.0" encoding="utf-8"?>
<!-- Generator: Adobe Illustrator 19.1.0, SVG Export Plug-In . SVG Version: 6.00 Build 0)  -->
<svg version="1.1" id="Layer_1" xmlns="http://www.w3.org/2000/svg" xmlns:xlink="http://www.w3.org/1999/xlink" x="0px" y="0px"
	 viewBox="-237.8 340.5 65.3 84.3" style="enable-background:new -237.8 340.5 65.3 84.3;" xml:space="preserve">
<style type="text/css">
	.st0{fill:#FFFFFF;}
</style>
<g>
	<path class="st0" d="M-175.2,402.8c-0.1,0-0.2,0-0.3,0l-58.8-17.8c-0.3-0.1-0.6-0.4-0.7-0.7c-0.1-0.4,0-0.7,0.3-1
		c6.3-5.5,14.8-8.9,25.3-10.3c0.6-0.1,1,0.3,1.1,0.9s-0.3,1-0.9,1.1c-9.3,1.2-17,4.1-22.8,8.6l54.5,16.4l-16.5-25.3
		c-0.7-0.1-2.3-0.2-4.5-0.3c-0.6,0-1-0.5-1-1s0.5-1,1-1c3.2,0.1,5.1,0.3,5.2,0.3c0.3,0,0.5,0.2,0.7,0.4l18.3,28
		c0.2,0.4,0.2,0.8,0,1.1C-174.6,402.7-174.9,402.8-175.2,402.8z"/>
	<path class="st0" d="M-175.2,423.6c-0.1,0-0.2,0-0.3,0l-58.8-17.8c-0.5-0.2-0.8-0.7-0.7-1.2c0.2-0.5,0.7-0.8,1.2-0.7l58.8,17.7
		c0.5,0.2,0.8,0.7,0.7,1.2C-174.3,423.3-174.7,423.6-175.2,423.6z"/>
	<path class="st0" d="M-234,405.5c-0.6,0-1-0.4-1-1V384c0-0.6,0.4-1,1-1s1,0.4,1,1v20.5C-233,405.1-233.4,405.5-234,405.5z"/>
	<path class="st0" d="M-175.2,423.3c-0.6,0-1-0.4-1-1v-20.5c0-0.6,0.4-1,1-1s1,0.4,1,1v20.5C-174.2,422.8-174.6,423.3-175.2,423.3z"
		/>
	<path class="st0" d="M-203.8,368c-3.1,0-6.3-0.8-6.3-2.7c0-1,0.7-2.3,3.9-2.7h0.1c0.7,0,1.2,0.5,1.8,1.1c0.1,0.1,0.3,0.3,0.5,0.4
		c0.1-0.1,0.3-0.3,0.4-0.4c0.6-0.6,1.2-1.2,1.9-1.1c3.4,0.4,4,1.8,4,2.7C-197.5,367.2-200.7,368-203.8,368z M-201.4,364.6
		c-0.2,0.1-0.4,0.4-0.5,0.5c-0.3,0.3-0.7,0.7-1,0.9c1.8-0.1,3-0.5,3.4-0.8C-199.7,365.1-200.2,364.8-201.4,364.6z M-208,365.2
		c0.4,0.3,1.6,0.7,3.4,0.8c-0.3-0.2-0.7-0.5-1-0.9c-0.2-0.2-0.4-0.4-0.6-0.5C-207.4,364.8-207.9,365-208,365.2z"/>
	<path class="st0" d="M-203.8,388.8c-3.1,0-6.3-0.8-6.3-2.7c0-0.6,0.4-1,1-1c0.5,0,0.9,0.4,1,0.9c0.3,0.3,1.9,0.9,4.3,0.9
		c2.4,0,4-0.6,4.3-0.9c0.1-0.5,0.5-0.9,1-0.9c0.6,0,1,0.4,1,1C-197.5,388-200.7,388.8-203.8,388.8z"/>
	<path class="st0" d="M-209.1,387.3c-0.6,0-1-0.4-1-1v-21c0-0.6,0.4-1,1-1c0.6,0,1,0.4,1,1v21C-208.1,386.8-208.6,387.3-209.1,387.3
		z"/>
	<path class="st0" d="M-198.5,387.3c-0.6,0-1-0.4-1-1v-21c0-0.6,0.4-1,1-1s1,0.4,1,1v21C-197.5,386.8-198,387.3-198.5,387.3z"/>
	<path class="st0" d="M-203.8,366.3c-0.1,0-0.3,0-0.4-0.1c-0.2-0.1-0.3-0.2-0.4-0.3c-0.7-0.7-4-4.1-4.9-6.9c-0.6-1.9-0.5-5.1,1-7.9
		c2.1-3.9,3.8-8.2,3.8-8.2c0.1-0.4,0.5-0.6,0.9-0.6s0.8,0.3,1,0.6c0,0,1.7,4.3,3.8,8.2c1.5,2.8,1.6,6,1,7.9
		c-0.9,2.8-4.1,6.1-4.9,6.9c-0.1,0.1-0.2,0.2-0.4,0.3c-0.1,0-0.2,0.1-0.2,0.1C-203.7,366.3-203.8,366.3-203.8,366.3z M-203.8,345.9
		c-0.7,1.6-1.8,3.9-3,6.2c-1.3,2.4-1.2,5.1-0.8,6.3c0.5,1.7,2.5,4,3.8,5.4c1.4-1.5,3.3-3.7,3.8-5.4c0.4-1.2,0.5-3.9-0.8-6.3
		C-202.1,349.9-203.1,347.6-203.8,345.9z"/>
	<path class="st0" d="M-175.2,415.8c-0.1,0-0.2,0-0.3,0l-58.8-17.3c-0.5-0.2-0.8-0.7-0.7-1.2s0.7-0.8,1.2-0.7l58.8,17.3
		c0.5,0.2,0.8,0.7,0.7,1.2C-174.3,415.5-174.7,415.8-175.2,415.8z"/>
</g>
</svg>
