<?xml version="1.0" encoding="utf-8"?>
<!-- Generator: Adobe Illustrator 19.1.0, SVG Export Plug-In . SVG Version: 6.00 Build 0)  -->
<svg version="1.1" id="Layer_1" xmlns="http://www.w3.org/2000/svg" xmlns:xlink="http://www.w3.org/1999/xlink" x="0px" y="0px"
	 viewBox="-255 354.7 100 85.3" style="enable-background:new -255 354.7 100 85.3;" xml:space="preserve">
<style type="text/css">
	.st0{fill:#FFFFFF;}
</style>
<path class="st0" d="M-228.1,408.1c0,0.5-0.2,1.2-0.2,2c-0.1,0.9-0.1,2-0.2,3.2c0,0.6-0.1,1.3-0.1,2c0,0.3,0,0.7,0,1.1
	c0,0.2,0,0.4,0,0.5v0.1c0,0.1,0,0.2,0.1,0.2l0.1,0.1l0.2,0.2l0.4,0.4c0.6,0.6,1.2,1.1,1.8,1.7c1.3,1.1,2.7,2.2,4.3,3.2
	s3.3,1.9,5.2,2.7c0.5,0.2,0.9,0.4,1.4,0.6s1,0.3,1.4,0.5c1,0.4,2,0.5,3,0.8c1,0.2,2.1,0.3,3.1,0.5c1,0,2.1,0.2,3.1,0.1
	c2.1,0,4.3-0.2,6.3-0.7c0.5-0.1,1-0.2,1.5-0.3c0.5-0.1,1-0.3,1.5-0.4c1-0.3,1.9-0.7,2.9-1c1.8-0.8,3.6-1.7,5-2.8
	c1.5-1.1,2.8-2.3,3.9-3.5c0.3-0.3,0.5-0.6,0.8-0.9c0.1-0.2,0.2-0.3,0.3-0.5l0.1-0.2v-0.1c0.1-0.1,0.1-0.2,0-0.3c0-0.4,0-0.8,0-1.2
	c-0.1-1.5-0.1-3-0.2-4.2c-0.1-1.3-0.1-2.3-0.2-3.3c-0.1-0.9-0.2-1.6-0.2-2.1c-0.1-2.3,5-2.8,4.9,0c0,0.5-0.2,1.2-0.2,2.1
	c-0.1,0.9-0.1,2-0.2,3.3c-0.1,1.3-0.1,2.7-0.2,4.2c0,0.4,0,0.8,0,1.2c0,0.3,0,0.7,0,1c0,0.2-0.1,0.3-0.2,0.5l-0.3,0.4
	c-0.1,0.2-0.2,0.3-0.3,0.4l-0.2,0.3c-0.1,0.2-0.3,0.4-0.4,0.5c-0.3,0.4-0.6,0.7-1,1.1c-1.3,1.4-2.9,2.7-4.6,3.9
	c-1.7,1.2-3.7,2.2-5.7,3c-1,0.4-2.1,0.8-3.2,1.1c-0.5,0.1-1.1,0.3-1.6,0.5c-0.6,0.1-1.1,0.2-1.7,0.3c-2.2,0.4-4.5,0.6-6.8,0.7
	c-1.1,0.1-2.3-0.1-3.5-0.1c-1.1-0.1-2.3-0.3-3.4-0.5c-1.1-0.3-2.2-0.5-3.3-0.8c-0.5-0.2-1.1-0.3-1.6-0.5s-1-0.4-1.5-0.6
	c-2-0.8-3.9-1.8-5.7-2.8s-3.4-2.2-4.8-3.3c-0.7-0.6-1.4-1.1-2.1-1.7l-0.5-0.4c-0.2-0.2-0.4-0.4-0.6-0.6c-0.2-0.2-0.5-0.5-0.7-0.7
	l-0.2-0.2c-0.1-0.1,0-0.2,0-0.2v-0.5c0-0.9-0.1-1.8-0.1-2.6c0-0.7-0.1-1.4-0.1-2c-0.1-1.2-0.1-2.3-0.2-3.2c-0.1-0.9-0.2-1.6-0.2-2
	C-233.2,404.6-228.1,404.7-228.1,408.1z M-233.7,403c0.5,0.2,1.2,0.4,2.1,0.8c0.9,0.4,2,0.8,3.2,1.4s2.6,1.2,4.1,1.9
	c1.5,0.7,3.1,1.5,4.9,2.3c1.7,0.8,3.6,1.7,5.5,2.6s3.9,1.9,6,2.9c0.4,0.2,1.2,0.6,1.9,0.7c0.7,0.2,1.5,0.2,2.2,0.2
	c0.7-0.1,1.5-0.3,2.2-0.6c0.7-0.4,1.2-0.6,1.7-0.9c2-1.2,4.1-2.4,6.2-3.6c2.1-1.2,4.1-2.4,6.2-3.6c2.1-1.2,4.1-2.4,6.1-3.5
	s3.9-2.2,5.8-3.3c1.9-1,3.7-2.1,5.4-3s3.3-1.8,4.8-2.6c0.2-0.1,0.4-0.2,0.5-0.3c0.2-0.1,0.3-0.2,0.6-0.3c0.5-0.3,0.9-0.6,1.3-1
	c0.8-0.7,1.3-1.6,1.7-2.4c0.7-1.7,0.7-3.5,0.4-4.8c-0.3-1.4-0.9-2.4-1.4-3c-0.4-0.4-0.8-0.7-1.1-0.8c-0.4-0.1-0.7-0.2-1.1-0.1
	c-0.6,0.2-1,0.7-1.3,1.3c-0.2,0.6-0.4,1.2-0.4,1.7s0,0.9,0.2,1.1s0.6,0.5,0.8,1s0.3,1.3,0.1,2.1c-0.1,0.4-0.4,0.8-0.7,1.2
	c-0.2,0.2-0.3,0.3-0.6,0.5c-0.1,0.1-0.3,0.2-0.5,0.3c-0.2,0.1-0.4,0.2-0.5,0.3c-1.4,0.9-3,1.8-4.6,2.9c-1.7,1-3.4,2.1-5.3,3.2
	c-1.8,1.1-3.8,2.3-5.7,3.4c-2,1.2-4,2.4-6,3.6s-4.1,2.4-6.2,3.6c-2.1,1.2-4.1,2.4-6.2,3.6c-0.5,0.3-1.1,0.6-1.4,0.8
	c-0.4,0.2-0.8,0.3-1.2,0.3s-0.8,0-1.2-0.1s-0.7-0.2-1.3-0.5c-2-1-4-2.1-5.9-3c-1.9-1-3.7-1.9-5.4-2.8s-3.3-1.8-4.8-2.5
	c-1.5-0.8-2.8-1.5-4-2.2s-2.2-1.2-3-1.7s-1.4-0.9-1.9-1.2C-234.8,396.9-237.2,401.5-233.7,403z M-167.6,379.4
	c-0.5-0.2-1.3-0.5-2.3-0.9s-2.2-0.9-3.5-1.5c-1.4-0.6-2.9-1.3-4.6-2.1c-1.7-0.8-3.5-1.6-5.4-2.6c-1.9-0.9-4-1.9-6.1-2.9
	s-4.4-2.1-6.6-3.2c-1.1-0.6-2.3-1.1-3.5-1.7c-0.6-0.3-1.2-0.6-1.8-0.9l-0.9-0.4l-0.5-0.2l-0.6-0.2c-1.6-0.6-3.4-0.6-4.9,0.1
	c-0.8,0.4-1.3,0.7-1.9,1.1l-1.7,1c-2.3,1.3-4.6,2.7-6.9,4c-2.3,1.3-4.6,2.6-6.8,3.9s-4.4,2.5-6.4,3.7c-2.1,1.2-4.1,2.3-6,3.4
	c-1.9,1-3.7,2-5.3,2.9c-0.4,0.2-0.8,0.4-1.2,0.7c-0.2,0.1-0.4,0.2-0.6,0.3c-0.2,0.1-0.4,0.2-0.6,0.4c-1,0.6-1.8,1.4-2.4,2.3
	c-1.1,1.8-1.4,3.7-1.2,5.3c0.2,1.5,0.8,2.7,1.3,3.4c0.8,1,1.7,1.3,2.4,1.1c0.7-0.1,1.1-0.6,1.3-1.2s0.4-1.3,0.4-1.8s0-0.9-0.2-1.2
	c-0.2-0.2-0.6-0.6-0.8-1.2s-0.2-1.5,0.2-2.3c0.2-0.4,0.5-0.8,1-1.1c0.1-0.1,0.3-0.2,0.5-0.3c0.2-0.1,0.4-0.2,0.6-0.4
	c0.4-0.2,0.8-0.5,1.2-0.7c1.6-1,3.3-2,5.2-3.2c1.8-1.1,3.8-2.3,5.9-3.5c2-1.2,4.2-2.5,6.4-3.8s4.4-2.6,6.7-4c2.3-1.3,4.6-2.7,6.9-4
	l1.7-1c0.6-0.3,1.2-0.7,1.6-0.9c0.9-0.4,1.9-0.4,2.8,0l0.3,0.1l0.4,0.2l0.9,0.4c0.6,0.3,1.2,0.6,1.7,0.9c1.2,0.6,2.3,1.2,3.4,1.8
	c2.3,1.2,4.5,2.3,6.6,3.4s4.1,2.1,6,3.1s3.7,1.9,5.3,2.8s3.1,1.7,4.4,2.4c1.3,0.7,2.4,1.4,3.4,1.9c0.9,0.5,1.6,1,2.1,1.3
	C-166.2,385.7-163.8,381.1-167.6,379.4z M-237,415c-0.4,0.3-0.7,0.9-0.9,1.5s-0.4,1.2-0.4,1.7c-0.1,0.5-0.1,0.7,0.1,0.8
	c0.1,0,0.3,0,0.5,0.1s0.4,0.2,0.6,0.4c0.2,0.2,0.4,0.5,0.5,0.8c0.2,0.3,0.2,0.8,0.2,1.2c0,0.2-0.1,0.5-0.1,0.7l-0.2,0.4l-0.1,0.2
	c0,0.1-0.2,0.2-0.3,0.3c-0.2,0.3-0.4,0.5-0.6,0.8c-0.2,0.1,0,0.3,0,0.4l0.1,0.5c0.1,0.3,0.2,0.6,0.3,0.9l0.2,0.6
	c0.2,0.8,0.4,1.6,0.5,2.4s0.2,1.6,0.2,2.4s-0.1,1.6-0.2,2.4c-0.1,0.8-0.3,1.5-0.6,2.2s-0.7,1.3-1,1.7c-0.2,0.2-0.4,0.3-0.6,0.5
	c-0.2,0.2-0.5,0.2-0.7,0.4c-0.5,0.2-0.9,0.3-1.3,0.2c-0.1,0-0.2,0-0.3,0s-0.2-0.1-0.3-0.1c-0.2-0.1-0.3-0.1-0.5-0.2
	c-0.3-0.2-0.5-0.3-0.6-0.5c-0.2-0.2-0.2-0.3-0.3-0.4c-0.8-0.7-3.7,3.5-2.9,4c0.2,0.1,0.7,0.2,1.2,0.4c0.5,0.2,1.1,0.3,1.8,0.5
	c0.3,0.1,0.7,0,1.1,0.1c0.2,0,0.4,0,0.6,0c0.2,0,0.4-0.1,0.6-0.1c0.8-0.1,1.7-0.4,2.5-0.8c0.4-0.3,0.8-0.5,1.2-0.8
	c0.3-0.4,0.8-0.7,1-1.1c0.6-0.9,1.1-1.7,1.4-2.6c0.3-0.9,0.6-1.8,0.7-2.8c0.2-1,0.2-1.9,0.2-2.9s-0.1-1.9-0.2-2.8
	c-0.1-0.9-0.3-1.8-0.4-2.7c-0.1-0.3-0.1-0.6-0.2-0.8c0-0.1-0.1-0.1,0-0.2l0.1-0.1c0,0,0,0,0.1-0.1l0.2-0.3c0.1-0.2,0.2-0.4,0.4-0.6
	c0.2-0.5,0.4-0.9,0.5-1.4c0.2-0.9,0.2-1.9,0-2.7c-0.1-0.8-0.4-1.6-0.8-2.2c-0.3-0.6-0.7-1.1-1-1.5s-0.6-0.7-0.8-0.9
	C-236.1,414.5-236.7,414.6-237,415z M-216.7,387.4c0.2,0.5,0.7,1,1.2,1.3s1.1,0.6,1.5,0.8c0.4,0.2,0.7,0.3,0.9,0
	c0.1-0.1,0.1-0.4,0.4-0.6c0.2-0.3,0.5-0.5,1-0.8c0.4-0.3,0.9-0.6,1.6-0.8c0.6-0.3,1.3-0.5,2.1-0.7c0.4-0.1,0.8-0.2,1.1-0.2
	s0.8,0,1.2,0c0.9,0,1.8,0.1,2.7,0.3c0.9,0.2,1.8,0.5,2.6,0.9s1.4,1,1.5,1.4c0.1,0.2,0.1,0.5,0,0.7s-0.3,0.4-0.6,0.7
	c-0.6,0.5-1.4,0.9-2.3,1.1c-0.9,0.3-1.8,0.4-2.6,0.5c-0.9,0.1-1.7,0.1-2.5,0s-1.6-0.2-2.2-0.3c-0.7-0.1-1.3-0.3-1.7-0.5
	c-0.5-0.2-0.8-0.4-1-0.6c-0.1-0.1-0.2-0.2-0.1-0.2v-0.1l0,0l-0.1,0.1c-0.1,0.2-0.3,0.3-0.4,0.4c-0.1,0-0.1,0.1-0.1,0.1
	s-0.1,0.1-0.3,0.1c-0.1,0-0.3,0.1-0.4,0.1c-0.3,0.1-0.6,0.1-0.9,0.2c-0.6,0.2-1.2,0.5-1.5,1s-0.3,1.1,0.2,1.6c0.4,0.3,1,0.6,1.6,0.8
	c0.6,0.2,1.3,0.4,2,0.5s1.5,0.2,2.3,0.3c0.8,0.1,1.7,0.1,2.6,0.1c0.9,0,1.9-0.1,3-0.3c1-0.2,2.1-0.4,3.2-0.8
	c1.1-0.4,2.2-0.9,3.3-1.8c0.3-0.2,0.5-0.5,0.8-0.8c0.2-0.3,0.5-0.7,0.6-1.1c0.3-0.8,0.4-1.7,0.1-2.5c-0.2-0.8-0.8-1.6-1.3-2
	c-0.5-0.5-1.1-0.9-1.6-1.2c-1.1-0.6-2.2-1-3.3-1.3s-2.2-0.4-3.2-0.5c-0.5,0-1-0.1-1.6-0.1s-1,0.1-1.5,0.2c-0.9,0.1-1.8,0.3-2.6,0.5
	s-1.5,0.5-2.2,0.7c-0.7,0.3-1.2,0.5-1.7,0.8c-0.5,0.2-0.9,0.5-1.2,0.6C-216.9,386.3-216.9,386.9-216.7,387.4z M-247.3,439.1
	c0.4,0.3,0.8,0.4,1.1,0.4c0.7,0,1.2-0.5,1.6-1c0.4-0.5,0.6-1.1,0.7-1.6c0.1-0.2,0.1-0.4,0.2-0.5c0.1-0.1,0.1-0.1,0-0.2
	s-0.3-0.4-0.4-1.1c-0.1-0.5-0.1-1,0-1.6c0.1-0.3,0.3-0.6,0.5-0.9c0.1-0.1,0.1-0.1,0.2-0.2c0,0,0.2-0.2,0.3-0.3
	c0.2-0.3,0.5-0.5,0.7-0.8c0.5-0.6,0.9-1.3,1.3-2c0.2-0.4,0.3-0.8,0.5-1.1c0.1-0.2,0.1-0.4,0.2-0.6c0.1-0.2,0.1-0.4,0.2-0.7
	c0.1-0.4,0.2-0.8,0.2-1.2c0-0.4,0.1-0.8,0.1-1.2c-0.3-0.3-0.7-0.6-1-0.9c-0.1-0.1-0.2-0.2-0.2-0.2l-0.1-0.1
	c-0.1-0.1-0.1-0.1-0.2-0.2c-0.2-0.3-0.3-0.6-0.4-1c-0.3-1.1,0-2.4,0.9-3.2c0.1-0.1,0.2-0.1,0.2-0.2l0.1-0.1c0,0,0,0,0.1-0.1
	c0.1,0,0.1-0.1,0.2-0.1c0.4-0.2,0.9-0.4,1.4-0.6c0.1-0.4,0-0.9,0-1.4v-1.3v-1.8c0-1.8,0-3.7,0-5.5s0-3.7,0-5.5c0-0.9,0-1.8,0-2.7
	c0-0.7,0-1.4,0-2v-0.3c0.1-0.1,0.3-0.1,0.4-0.1l0.6-0.2l2.1-0.6c1.6-0.4,3.1-0.9,4.5-1.3s2.8-0.8,4-1.1c1.2-0.3,2.4-0.6,3.4-0.9
	c1-0.2,1.9-0.4,2.7-0.6c0.7-0.2,1.4-0.2,1.8-0.3c2.3-0.6,0.4-5.4-1.4-4.7c-0.4,0.2-0.9,0.4-1.6,0.7c-0.7,0.3-1.6,0.6-2.5,1
	c-1,0.4-2.1,0.7-3.3,1.2c-1.2,0.4-2.6,0.9-4,1.3c-1.4,0.5-2.9,1-4.5,1.5l-5.2,1.7c0,0.4,0,0.9,0,1.3c0,2,0,4,0,6c0,1.8,0,3.7,0,5.5
	s0,3.7,0,5.5v1.8v0.4c0,0.1,0,0.2,0,0.3c-0.1,0-0.2,0.1-0.3,0.1l0,0c0,0,0,0-0.1,0l-0.3,0.2c-0.2,0.1-0.3,0.2-0.5,0.4
	c-1.8,1.5-2.5,4-2,6.2c0.1,0.7,0.4,1.4,0.8,2c0.1,0.2,0.2,0.3,0.3,0.4l0.2,0.3c0,0.1,0.1,0.1,0.2,0.2c0,0.1,0,0.3-0.1,0.4l-0.1,0.4
	c-0.1,0.1-0.1,0.3-0.2,0.4c-0.1,0.3-0.2,0.5-0.4,0.8c-0.3,0.5-0.6,0.9-1,1.3c-0.2,0.2-0.4,0.4-0.5,0.5l-0.3,0.3
	c-0.1,0.1-0.3,0.3-0.4,0.4c-0.5,0.6-1,1.2-1.3,1.9c-0.6,1.3-0.8,2.6-0.8,3.6c0,0.8,0,1.6,0.2,2.3
	C-248.1,438.3-247.7,438.8-247.3,439.1z"/>
</svg>
