<?xml version="1.0" encoding="utf-8"?>
<!-- Generator: Adobe Illustrator 19.1.0, SVG Export Plug-In . SVG Version: 6.00 Build 0)  -->
<svg version="1.1" id="Layer_1" xmlns="http://www.w3.org/2000/svg" xmlns:xlink="http://www.w3.org/1999/xlink" x="0px" y="0px"
	 viewBox="-269 366.2 73 61.8" style="enable-background:new -269 366.2 73 61.8;" xml:space="preserve">
<style type="text/css">
	.st0{fill:#FFFFFF;}
</style>
<path class="st0" d="M-201.7,379.3h-17v-7.7c0-2.2-1.8-4-4-4h-19.6c-2.2,0-4,1.8-4,4v7.7h-17c-1.8,0-3.3,1.4-3.3,3.2v41
	c0,1.8,1.5,3.2,3.3,3.2h61.5c1.8,0,3.3-1.4,3.3-3.2v-41C-198.4,380.8-199.9,379.3-201.7,379.3z M-213.3,383.9v38.3h-38.3v-38.3
	H-213.3z M-241.6,372.3h18.4v7h-18.4V372.3z M-262,383.9h5.7v38.3h-5.7V383.9z M-203,422.1h-5.8v-38.3h5.8V422.1z"/>
</svg>
